<svg xmlns="http://www.w3.org/2000/svg" viewBox="0 0 512 512"><path d="M255.999 0c141.386 0 256 114.614 256 256s-114.614 256-256 256C114.615 512 .001 397.386.001 256 .001 114.612 114.615 0 255.999 0z" fill="#5dddd3"/><path d="M118.461 200.171h68.304v184.711c0 18.781-15.368 34.153-34.153 34.153s-34.153-15.368-34.153-34.153V200.171h.002z" fill="#fff"/><path d="M128.79 280.364v104.518c0 13.081 10.74 23.823 23.821 23.823 13.084 0 23.823-10.74 23.823-23.823V280.364H128.79z" fill="#15bdb1"/><path d="M115.032 191.594h75.163c4.718 0 8.577 3.858 8.577 8.577v.002c0 4.718-3.858 8.575-8.577 8.575h-75.163c-4.718 0-8.577-3.858-8.577-8.575v-.002c0-4.718 3.859-8.577 8.577-8.577z" fill="#fff"/><path d="M198.772 200.171v.002c0 4.718-3.858 8.575-8.577 8.575h-75.163c-4.718 0-8.577-3.858-8.577-8.575v-.002h92.317z" fill="#ecf0f1"/><path d="M293.254 95.181v142.792l101.33 187.171c15.176 28.03-2.952 44.661-34.625 44.661H149.856c-31.673 0-49.81-16.607-34.625-44.661l101.335-187.171V95.181h76.688zm203.082 37.44v175.303H379.289V132.621h117.047z" fill="#fff"/><path d="M432.814 132.621V37.637h-50.105a3.54 3.54 0 0 1-3.537-3.537V12.063h-13.511v60.086a3.538 3.538 0 0 1-3.534 3.537h-21.208a3.54 3.54 0 0 1-3.537-3.537V40.754h-78.936v54.427h-7.073V37.22a3.54 3.54 0 0 1 3.537-3.537h86.009a3.538 3.538 0 0 1 3.537 3.537v31.395h14.135V8.528a3.538 3.538 0 0 1 3.537-3.537h20.584a3.54 3.54 0 0 1 3.537 3.537v22.037h50.105a3.538 3.538 0 0 1 3.537 3.537v98.521h-7.073l-.004-.002z" fill="#ff5b61"/><path d="M439.885 155.79c0 1.951-1.585 3.537-3.537 3.537s-3.537-1.585-3.537-3.537v-23.166h7.073v23.166zM258.444 95.181v49.016a3.54 3.54 0 0 1-3.537 3.537 3.54 3.54 0 0 1-3.537-3.537V95.181h7.074z" fill="#c8cacc"/><path d="M207.226 291.081L128.66 431.715c-1.887 3.861-5.031 11.659-2.509 15.921 3.631 6.136 17.603 7.221 23.704 7.221H359.96c6.103 0 20.066-1.087 23.702-7.227 2.52-4.262-.615-12.054-2.507-15.915L302.59 291.081c-39.273-8.731-56.089 12.475-95.362 0h-.002z" fill="#ff5b61"/><path d="M379.289 118.79h-7.051v13.831h131.146V118.79H379.287h.002z" fill="#fff"/><path d="M391.524 178.908c64.908-11.172 63.843 14.365 92.573 0v119.174h-92.573V178.908z" fill="#20d0c2"/><path d="M391.524 137.408h11.891v3.989h-11.891v-3.989zm0 157.159h5.946v3.991h-5.946v-3.991zm0-9.243h11.891v3.991h-11.891v-3.991zm0-9.247h5.946v3.991h-5.946v-3.991zm0-9.245h11.891v3.991h-11.891v-3.991zm0-9.245h5.946v3.991h-5.946v-3.991zm0-9.242h11.891v3.989h-11.891v-3.989zm0-9.245h5.946v3.991h-5.946V239.1zm0-9.245h11.891v3.991h-11.891v-3.991zm0-9.247h5.946v3.993h-5.946v-3.993zm0-9.243h11.891v3.991h-11.891v-3.991zm0-9.245h5.946v3.991h-5.946v-3.991zm0-9.242h11.891v3.989h-11.891v-3.989zm0-9.245h5.946v3.991h-5.946v-3.991zm0-9.245h11.891v3.991h-11.891v-3.991zm0-9.245h5.946v3.991h-5.946v-3.991zm0-9.245h11.891v3.991h-11.891v-3.991zm0-9.245h5.946v3.991h-5.946v-3.991zm-262.734 79.63h11.893v3.991H128.79v-3.991zm0 157.159h5.946v3.991h-5.946v-3.991zm0-9.245h11.893v3.991H128.79v-3.991zm0-9.245h5.946v3.991h-5.946v-3.991zm0-9.245h11.893v3.991H128.79v-3.991zm0-9.242h5.946v3.991h-5.946v-3.991zm0-9.243h11.893v3.991H128.79v-3.991zm0-9.247h5.946v3.991h-5.946v-3.991zm0-9.245h11.893v3.991H128.79v-3.991zm0-9.245h5.946v3.991h-5.946v-3.991zm0-9.243h11.893v3.989H128.79v-3.989zm0-9.245h5.946v3.989h-5.946v-3.989zm0-9.244h11.893v3.991H128.79v-3.991zm0-9.245h5.946v3.991h-5.946v-3.991zm0-9.245h11.893v3.991H128.79v-3.991zm0-9.245h5.946v3.991h-5.946v-3.991zm0-9.245h11.893v3.991H128.79v-3.991zm0-9.243h5.946v3.991h-5.946v-3.991z" fill="#666"/><path d="M110.195 104.247c7.064 0 12.79 5.726 12.79 12.793 0 7.064-5.726 12.793-12.79 12.793-7.067 0-12.795-5.728-12.795-12.793 0-7.067 5.728-12.793 12.795-12.793z" fill="#20d0c2"/><path d="M132.373 152.194a8.264 8.264 0 0 1 0 16.528c-4.564 0-8.266-3.7-8.266-8.264s3.702-8.264 8.266-8.264z" fill="#ff5b61"/><path d="M129.247 67.201c4.996 0 9.044 4.048 9.044 9.044s-4.048 9.044-9.044 9.044c-4.994 0-9.042-4.048-9.042-9.044s4.048-9.044 9.042-9.044zm27.982 98.198a5.614 5.614 0 1 1 0 11.228 5.614 5.614 0 0 1 0-11.228z" fill="#fff"/><path d="M159.186 118.614c5.885 0 10.654 4.769 10.654 10.654 0 5.883-4.769 10.652-10.654 10.652-5.883 0-10.652-4.769-10.652-10.652.001-5.885 4.77-10.654 10.652-10.654z" fill="#fbb429"/><path d="M236.815 344.447c6.29 0 11.392 5.1 11.392 11.392 0 6.29-5.102 11.392-11.392 11.392-6.293 0-11.392-5.102-11.392-11.392-.001-6.292 5.099-11.392 11.392-11.392zm-50.807 52.881c4.564 0 8.264 3.7 8.264 8.264a8.265 8.265 0 1 1-8.264-8.264zm125.467-46.002a8.355 8.355 0 0 1 8.356 8.354 8.355 8.355 0 1 1-16.71 0 8.354 8.354 0 0 1 8.354-8.354zm-50.143-47.39a6.086 6.086 0 1 1-.003 12.173 6.086 6.086 0 0 1 .003-12.173zm70.604 114.263c4.048 0 7.327 3.281 7.327 7.327s-3.279 7.327-7.327 7.327a7.328 7.328 0 0 1 0-14.654zm-117.02 17.959a4.777 4.777 0 0 1 0 9.552 4.777 4.777 0 0 1 0-9.552zm58.49-42.968c6.85 0 12.404 5.554 12.404 12.404s-5.554 12.402-12.404 12.402-12.402-5.554-12.402-12.402c0-6.85 5.554-12.404 12.402-12.404z" fill="#fff"/><path d="M253.984 159.011a5.186 5.186 0 0 1 0 10.37 5.185 5.185 0 0 1 0-10.37z" fill="#20d0c2"/><path d="M249.563 188.739c5.565 0 10.078 4.513 10.078 10.078 0 5.565-4.513 10.076-10.078 10.076-5.565 0-10.076-4.513-10.076-10.076 0-5.565 4.511-10.078 10.076-10.078z" fill="#ff5b61"/><path d="M216.563 75.128h-16.128c-13.189 0-13.189 20.053 0 20.053h108.943c13.189 0 13.189-20.053 0-20.053h-92.815z" fill="#fff"/><path d="M216.563 95.181h-16.128c-5.494 0-10.021-4.504-10.021-10.019v-.007h128.988v.007c0 5.492-4.527 10.019-10.023 10.019h-92.816zm162.726 37.44h-7.051v-6.917h131.146v6.917H379.287h.002z" fill="#ecf0f1"/><path d="M269.116 225.637a6.394 6.394 0 1 1 0 12.789 6.394 6.394 0 0 1 0-12.789z" fill="#fbb429"/><path d="M245.1 249.139c7.69 0 13.928 6.235 13.928 13.928 0 7.69-6.238 13.926-13.928 13.926s-13.928-6.235-13.928-13.926 6.236-13.928 13.928-13.928z" fill="#ecf0f1"/><path d="M277.536 266.806c1.766 0 3.199 1.431 3.199 3.197s-1.433 3.197-3.199 3.197-3.195-1.429-3.195-3.197a3.195 3.195 0 0 1 3.195-3.197z" fill="#20d0c2"/><path d="M213.45 344.075c2.282 0 4.132 1.848 4.132 4.13s-1.85 4.134-4.132 4.134-4.132-1.852-4.132-4.134 1.85-4.13 4.132-4.13zM125.289 122.14a5.615 5.615 0 1 1-.001 11.227 5.615 5.615 0 0 1 .001-11.227z" fill="#fff"/></svg>