<svg xmlns="http://www.w3.org/2000/svg" viewBox="0 0 512 512"><circle cx="256" cy="256" r="256" fill="#324a5e"/><path d="M501.912 327.349l-97.414-97.414-3.787 7.763-72.614-72.614-113.757 91.202-100.642 66.145 185.86 185.859c97.027-16.632 175.394-87.86 202.354-180.941z" fill="#2b3b4e"/><path d="M348.522 349.715c40.303 0 72.975-32.671 72.975-72.975 0-40.303-32.671-72.975-72.975-72.975-.56 0-1.112.029-1.67.043C339 164.401 304.23 134.7 262.517 134.7c-32.134 0-60.132 17.634-74.895 43.741a86.452 86.452 0 0 0-11.111-.738c-47.499 0-86.006 38.505-86.006 86.006s38.505 86.006 86.006 86.006h172.011z" fill="#b5f1f4"/><path d="M348.522 203.767c-.56 0-1.112.029-1.67.043-7.852-39.407-42.622-69.108-84.335-69.108-2.388 0-4.751.109-7.09.3v214.712h93.094c40.303 0 72.975-32.671 72.975-72.975-.001-40.302-32.673-72.972-72.974-72.972z" fill="#84dbff"/><path fill="#fc6f58" d="M281.762 267.969v-84.308H230.24v84.308h-25.761L256 319.491l51.522-51.522z"/><path fill="#f1543f" d="M307.522 267.969h-25.76v-84.308h-26.336v135.256l.574.574z"/></svg>