<svg xmlns="http://www.w3.org/2000/svg" viewBox="0 0 512 512"><g fill="#f2f2f2"><path d="M445.244 159.1v284.919H66.756V159.1L256 297.033z"/><path d="M466.067 67.981L256 221.091 45.933 67.981H256z"/></g><path d="M66.756 159.1v284.919H32.459c-12.849 0-23.273-10.424-23.273-23.273V117.135l57.57 41.965zm436.057-67.846v25.882L445.244 159.1 256 297.033 66.756 159.1 9.187 117.135V91.254c0-12.849 10.424-23.273 23.273-23.273h13.474L256 221.091l210.067-153.11h13.461c12.862 0 23.285 10.424 23.285 23.273z" fill="#f14336"/><path d="M502.813 117.135v303.611c0 12.849-10.424 23.273-23.285 23.273h-34.284V159.1l57.569-41.965z" fill="#d32e2a"/><path d="M479.528 58.794H32.459C14.561 58.794 0 73.356 0 91.254v329.493c0 17.898 14.561 32.459 32.459 32.459h447.069c17.905 0 32.472-14.561 32.472-32.459V91.254c0-17.898-14.566-32.46-32.472-32.46zm-41.661 18.373L256 209.723 74.133 77.167h363.734zM18.373 420.746V135.2l39.196 28.569v271.064h-25.11c-7.767 0-14.086-6.32-14.086-14.087zm417.684 14.087H75.943V177.161L250.59 304.457a9.17 9.17 0 0 0 5.41 1.763c1.9 0 3.8-.588 5.41-1.763L436.057 177.16v257.673zm57.57-14.087c0 7.767-6.324 14.086-14.098 14.086h-25.098V163.769l39.196-28.569v285.546zm0-308.282L256 285.665 18.373 112.464v-21.21c0-7.767 6.319-14.086 14.086-14.086H42.94l207.65 151.347a9.17 9.17 0 0 0 5.41 1.763 9.17 9.17 0 0 0 5.41-1.763L469.059 77.167h10.469c7.774 0 14.098 6.319 14.098 14.086v21.211z" fill="#333"/></svg>