<svg xmlns="http://www.w3.org/2000/svg" viewBox="0 0 513 513"><path d="M256.5 513C397.777 513 513 397.773 513 256.5 513 115.223 397.777 0 256.5 0S0 115.227 0 256.5 115.227 513 256.5 513z" fill="#ff757c"/><path d="M21.792 249.017l75.812 34.412 71.361-32.395-75.812-34.417-71.361 32.395v.005z" fill="#666"/><path d="M80.274 328.129h30.206l2.448 25.457 7.391 5.428 43.978 13.939s5.766 3.17 7.46 12.042c.745 3.892 2.319 81.755 3.961 115.01-64.489-21.385-117.625-67.663-148.016-127.449l43.034-13.735 7.094-5.234 2.444-25.458z" fill="#f0b97d"/><path d="M117.666 366.79c-7.289 8.515-31.631 12.19-45.038-2.356l22.75 67.719 22.288-65.363z" fill="#fff"/><path d="M57.667 289.468c-9.473-1.68-1.398 26.61 5.521 22.394l3.716 10.903c3.346 9.82 11.782 18.766 18.206 25.846 2.508 2.763 17.859 2.717 20.335.106 7.113-7.479 15.559-15.878 18.733-26.008l3.397-10.848c6.932 4.211 14.989-24.069 5.521-22.394.657-22.019-14.915-43.386-37.712-43.483-22.797.097-38.369 21.464-37.712 43.483h-.005z" fill="#fed198"/><path d="M70.74 358.82l-43.034 13.735c30.483 59.981 83.865 106.356 148.631 127.648-1.856-21.741-3.744-110.836-4.577-115.209-1.694-8.871-7.46-12.042-7.46-12.042l-43.978-13.939-24.939 73.138-24.638-73.331h-.005z" fill="#fbb429"/><path d="M122.567 250.322c2.679-.315 12.342 8.515 13.504 18.743 1.162 10.223-1.064 20.529-1.064 20.529-6.803-.329-4.66 10.07-6.141 11.713l-1.916.042-.717-6.979c-8.473-5.308 3.341-26.286-5.132-28.128-14.504 11.949-36.023 16.368-54.793 13.3-5.271.699 2.397 7.363.171 15.026-1.638 2.86-.662 7.372-.662 7.372l-2.453.305s-1.55-12.935-6.275-12.884c-1.148-5.965-1.62-9.519-1.305-14.8 1.62-27.026 37.953-42.414 66.779-24.24h.004z" fill="#666"/><path d="M55.83 251.807c17.192-13.097 64.678-13.351 80.015-.12l.81 21.362c-26.767-7.946-54.39-7.219-81.755.815l.935-22.061-.005.004z" fill="#807d7d"/><path d="M41.132 241.025l.12 37.869v1.171h-2.221v-38.323c.078-2.175 1.948-2.471 2.101-.717z" fill="#fff"/><path d="M36.064 285.725c0 10.089-2.12 18.77-2.235 19.349-.12.578 1.921 2.48 2.314.578.389-1.902-.037.042 1.763.167 1.777.12 2.143-.759 2.157-.787.009.028.379.907 2.157.787 1.8-.125 1.374-2.069 1.763-.167.393 1.902 2.43 0 2.309-.578-.116-.578-2.231-9.26-2.231-19.349-.097-3.864-1.606-5.683-3.998-6.238-2.393.555-3.906 2.373-3.999 6.238z" fill="#fbb429"/><path d="M40.109 279.486c3.966 0 4.082 2.518 3.878 4.845-.875-.759-2.286-1.254-3.878-1.254s-3.003.495-3.878 1.254c-.139-2.707-.083-4.845 3.878-4.845z" fill="#807d7d"/><g fill="#666"><path d="M359.505 246.217l69.255 31.437 65.187-29.595-69.255-31.437-65.187 29.595z"/><path d="M378.813 355.558c6.807-11.445 17.535-24.726 6.641-44.922-16.04-70.125 57.875-84.346 69.051-55.404 18.183 6.858 17.701 44.607 8.349 64.359-.417 8.131-8.871 15.221 6.405 36.194l1.101-.241h-.005c-19.812 5.743-70.602 3.096-91.542.014z"/></g><path d="M412.79 340.777c-.68 12.555-5.137 17.299-11.32 20.603-3.142 2.777-30.742 6.099-34.472 16.183-.791 2.138-3.179 68.857-5.442 112.997 52.84-23.754 96.179-64.877 122.757-116.102-7.932-8.436-31.062-10.454-33.788-12.731-6.044-3.383-10.389-8.358-11.06-20.95 0 0-9.033 7.006-14.652 5.928s-12.023-5.928-12.023-5.928z" fill="#f0b97d"/><path d="M398.235 320.178c5.572 11.935 7.636 16.595 14.554 21.964 0 0 6.405 4.942 12.023 6.044s14.652-6.044 14.652-6.044c6.923-5.364 8.983-10.024 14.554-21.964 1.365.727 2.795 1.717 3.901.444 1.111-1.273 6.391-17.785 5.438-20.011-.949-2.226-1.879-.805-3.295.204.074-.481-1.12 5.965-1.101 4.984.134-7.793-5.345-9.029-7.062-29.655-25.259 25.064-48.856 13.564-57.079 15.239-2.383.486-3.082 6.585-2.642 9.431-8.913-6.363 1.921 19.548 2.147 19.807 1.111 1.273 2.536.287 3.901-.444h.009z" fill="#fed198"/><path d="M401.466 361.375c-10.436 4.369-26.67 4.563-34.796 15.193-1.541 2.013-8.848 73.776-14.295 117.898 56.996-22.986 103.834-65.849 131.938-120.003-8.58-9.663-25.518-8.784-33.598-13.12l-23.704 48.448-25.545-48.416z" fill="#fbb429"/><path d="M388.332 249.429c17.845-11.963 61.295-11.449 77.219.639l1.643 20.015c-27.781-7.256-52.289-6.886-80.695.454l1.837-21.103-.004-.005z" fill="#807d7d"/><path d="M412.651 382.538c7.377 2.624 19.918 2.638 27.697-.009l-13.337 27.262-14.365-27.253h.005zM375.05 239.423l.111 34.098v1.055h-2.027v-34.505c.074-1.957 1.782-2.226 1.916-.648z" fill="#fff"/><path d="M370.422 279.745c0 9.214-1.934 17.146-2.041 17.674-.106.528 1.754 2.268 2.115.528.356-1.735-.037.037 1.615.153 1.62.111 1.958-.694 1.967-.717.009.028.347.828 1.971.717 1.643-.116 1.254-1.888 1.61-.153.356 1.74 2.217 0 2.11-.528-.111-.528-2.041-8.46-2.041-17.674-.088-3.526-1.472-5.192-3.656-5.701-2.183.509-3.562 2.175-3.65 5.701z" fill="#fbb429"/><path d="M374.074 274.049c3.619 0 3.73 2.3 3.545 4.429-.796-.694-2.087-1.143-3.545-1.143s-2.744.449-3.545 1.143c-.13-2.472-.074-4.429 3.545-4.429z" fill="#807d7d"/><path d="M119.582 139.861l145.627 66.108 137.08-62.225-145.622-66.108-137.08 62.23-.005-.005z" fill="#666"/><path d="M231.926 291.829h58.014l4.702 48.897 14.198 10.422 84.48 26.776s11.079 6.095 14.332 23.139c1.717 9.001 5.752 32.131 9.556 55.335-43.973 35.398-99.863 56.598-160.709 56.598-58.25 0-111.96-19.432-155.022-52.151 5.081-24.726 11.148-51.438 12.74-59.786 2.735-14.328 14.332-23.139 14.332-23.139l85.054-27.147 13.62-10.052 4.697-48.902.006.01z" fill="#f0b97d"/><path d="M303.745 366.091c-14.004 16.355-60.758 23.417-86.512-4.526l43.705 130.078 42.812-125.552h-.005z" fill="#20d0c2"/><path d="M188.49 217.562c-18.192-3.226-2.684 51.114 10.607 43.011l7.131 20.945c6.423 18.868 22.63 36.051 34.963 49.647 4.813 5.303 34.301 5.22 39.068.204 13.657-14.365 29.886-30.497 35.976-49.957l6.525-20.839c13.31 8.094 28.789-46.232 10.607-43.011 1.263-42.298-28.651-83.337-72.439-83.522-43.787.184-73.697 41.224-72.438 83.522z" fill="#fed198"/><path d="M213.605 350.782l-85.054 27.147s-11.597 8.811-14.332 23.134c-1.592 8.344-7.659 35.06-12.74 59.786C144.54 493.568 198.25 513 256.5 513c60.846 0 116.736-21.2 160.709-56.603-3.804-23.208-7.839-46.333-9.556-55.335-3.258-17.04-14.332-23.134-14.332-23.134l-84.48-26.776-47.907 140.495-47.329-140.865z" fill="#0e7886"/><path d="M313.163 142.369c5.137-.597 23.708 16.359 25.934 36.004 2.226 19.64-2.05 39.438-2.05 39.438-13.064-.639-8.95 19.34-11.796 22.496l-3.674.083-1.374-13.407c-16.271-10.195 6.419-50.494-9.857-54.025-27.859 22.949-69.19 31.441-105.25 25.545-10.121 1.347 4.605 14.143.333 28.859-3.147 5.498-1.268 14.161-1.268 14.161l-4.706.588s-2.976-24.847-12.055-24.745c-2.203-11.454-3.11-18.284-2.504-28.424 3.11-51.919 72.906-81.482 128.273-46.569l-.006-.004z" fill="#666"/><path d="M184.964 145.22c33.024-25.152 124.238-25.647 153.698-.227l1.55 41.03c-51.415-15.262-104.472-13.865-157.044 1.564l1.796-42.372v.005z" fill="#807d7d"/><path d="M156.734 124.506l.231 72.744v2.254h-4.262v-73.619c.148-4.169 3.744-4.743 4.031-1.379z" fill="#fff"/><path d="M146.993 210.375c0 19.377-4.068 36.051-4.295 37.161s3.688 4.767 4.443 1.111c.754-3.656-.074.079 3.388.315 3.411.236 4.119-1.453 4.142-1.509.023.056.736 1.745 4.142 1.509 3.466-.236 2.638-3.971 3.392-.315.754 3.651 4.669 0 4.443-1.111-.222-1.111-4.29-17.789-4.29-37.161-.185-7.418-3.091-10.917-7.682-11.991-4.597 1.069-7.503 4.568-7.683 11.991z" fill="#fbb429"/><path d="M154.767 198.384c7.617 0 7.839 4.836 7.451 9.316-1.68-1.458-4.387-2.402-7.451-2.402s-5.771.944-7.451 2.402c-.268-5.202-.161-9.316 7.451-9.316z" fill="#807d7d"/></svg>