<svg xmlns="http://www.w3.org/2000/svg" viewBox="0 0 511.999 511.999"><path d="M407.783 134.546c-6.845 0-13.631.664-20.287 1.98.34-3.677.512-7.373.512-11.065 0-65.717-53.465-119.182-119.182-119.182-65.099 0-118.176 52.462-119.168 117.33-11.8-4.096-24.16-6.165-36.891-6.165C50.588 117.444 0 168.032 0 230.212c0 28.114 10.407 55.046 29.304 75.833 18.105 19.916 42.533 32.635 69.055 36.023a7.974 7.974 0 0 0 3.72.913h303.566c.169 0 .336-.005.502-.016.544.01 1.089.016 1.635.016 57.466 0 104.217-46.751 104.217-104.217s-46.75-104.218-104.216-104.218z" fill="#4acfd9"/><path d="M149.659 123.61c-11.8-4.096-24.16-6.165-36.891-6.165C50.588 117.444 0 168.032 0 230.212c0 28.114 10.407 55.046 29.304 75.833 18.105 19.916 42.533 32.635 69.055 36.023a7.974 7.974 0 0 0 3.72.913H256V6.972C196.894 13.325 150.586 63.06 149.659 123.61z" fill="#0295aa"/><path d="M347.925 133.478a8.017 8.017 0 0 1-8.017-8.017c0-39.195-31.887-71.081-71.081-71.081a8.017 8.017 0 0 1 0-16.034c48.035 0 87.115 39.08 87.115 87.115a8.018 8.018 0 0 1-8.017 8.017zM471.917 246.78a8.017 8.017 0 0 1-8.017-8.017c0-30.943-25.174-56.117-56.117-56.117a8.017 8.017 0 0 1 0-16.034c39.784 0 72.15 32.366 72.15 72.15a8.017 8.017 0 0 1-8.016 8.018z" fill="#fff"/><path d="M414.946 256.3L260.491 132.041a8.016 8.016 0 0 0-10.06.009L96.51 256.308a8.017 8.017 0 0 0 5.035 14.255h73.219v167.282a8.017 8.017 0 0 0 8.017 8.017h145.37a8.017 8.017 0 0 0 8.017-8.017V270.563h73.754a8.015 8.015 0 0 0 5.024-14.263z" fill="#ff8c29"/><path d="M250.431 132.049L96.51 256.308a8.017 8.017 0 0 0 5.035 14.255h73.219v167.282a8.017 8.017 0 0 0 8.017 8.017H256V130.316c-1.958-.132-3.954.429-5.569 1.733z" fill="#fd6a33"/><path d="M328.15 475.791H182.78a8.017 8.017 0 0 1 0-16.034h145.37a8.017 8.017 0 0 1 0 16.034zm0 29.929H182.78a8.017 8.017 0 0 1 0-16.034h145.37a8.017 8.017 0 0 1 0 16.034z" fill="#f0353d"/></svg>